<mxfile host="Electron" modified="2024-06-13T04:18:44.402Z" agent="Mozilla/5.0 (Windows NT 10.0; Win64; x64) AppleWebKit/537.36 (KHTML, like Gecko) draw.io/24.5.1 Chrome/124.0.6367.207 Electron/30.0.6 Safari/537.36" etag="jDC1fDl4Y1Rr9bLX4vD4" version="24.5.1" type="device">
  <diagram id="C5RBs43oDa-KdzZeNtuy" name="Page-1">
    <mxGraphModel dx="1050" dy="621" grid="1" gridSize="10" guides="1" tooltips="1" connect="1" arrows="1" fold="1" page="1" pageScale="1" pageWidth="827" pageHeight="1169" math="0" shadow="0">
      <root>
        <mxCell id="WIyWlLk6GJQsqaUBKTNV-0" />
        <mxCell id="WIyWlLk6GJQsqaUBKTNV-1" parent="WIyWlLk6GJQsqaUBKTNV-0" />
        <mxCell id="k-K2xL4uydOFMYodM3rV-2" value="Automovil" style="swimlane;fontStyle=1;align=center;verticalAlign=top;childLayout=stackLayout;horizontal=1;startSize=20;horizontalStack=0;resizeParent=1;resizeParentMax=0;resizeLast=0;collapsible=1;marginBottom=0;whiteSpace=wrap;html=1;" parent="WIyWlLk6GJQsqaUBKTNV-1" vertex="1">
          <mxGeometry x="110" y="80" width="250" height="340" as="geometry" />
        </mxCell>
        <mxCell id="k-K2xL4uydOFMYodM3rV-3" value="- Marca: String&lt;div&gt;- Modelo: String&lt;br&gt;&lt;/div&gt;&lt;div&gt;- Color: String&lt;br&gt;&lt;/div&gt;&lt;div&gt;- AÃ±o: Int&lt;br&gt;&lt;/div&gt;&lt;div&gt;- Velocidad_max: Int&lt;br&gt;&lt;/div&gt;&lt;div&gt;- Velocidad: Int&lt;br&gt;&lt;/div&gt;&lt;div&gt;- Cant_asientos: Int&lt;br&gt;&lt;/div&gt;&lt;div&gt;&lt;br&gt;&lt;/div&gt;" style="text;strokeColor=none;fillColor=none;align=left;verticalAlign=top;spacingLeft=4;spacingRight=4;overflow=hidden;rotatable=0;points=[[0,0.5],[1,0.5]];portConstraint=eastwest;whiteSpace=wrap;html=1;" parent="k-K2xL4uydOFMYodM3rV-2" vertex="1">
          <mxGeometry y="20" width="250" height="180" as="geometry" />
        </mxCell>
        <mxCell id="k-K2xL4uydOFMYodM3rV-4" value="" style="line;strokeWidth=1;fillColor=none;align=left;verticalAlign=middle;spacingTop=-1;spacingLeft=3;spacingRight=3;rotatable=0;labelPosition=right;points=[];portConstraint=eastwest;strokeColor=inherit;" parent="k-K2xL4uydOFMYodM3rV-2" vertex="1">
          <mxGeometry y="200" width="250" height="10" as="geometry" />
        </mxCell>
        <mxCell id="k-K2xL4uydOFMYodM3rV-5" value="+ automovil(velocidad_max)&lt;div&gt;+ acelerar(Kms int)&lt;div&gt;+ frenar(Kms int)&lt;br&gt;&lt;/div&gt;&lt;div&gt;+ frenar(Kms int, tieneNitro bool)&lt;br&gt;&lt;/div&gt;&lt;/div&gt;" style="text;strokeColor=none;fillColor=none;align=left;verticalAlign=top;spacingLeft=4;spacingRight=4;overflow=hidden;rotatable=0;points=[[0,0.5],[1,0.5]];portConstraint=eastwest;whiteSpace=wrap;html=1;" parent="k-K2xL4uydOFMYodM3rV-2" vertex="1">
          <mxGeometry y="210" width="250" height="130" as="geometry" />
        </mxCell>
        <mxCell id="ypGPbcFVO5MuSrkknOs2-4" value="Motor" style="swimlane;fontStyle=1;align=center;verticalAlign=top;childLayout=stackLayout;horizontal=1;startSize=30;horizontalStack=0;resizeParent=1;resizeParentMax=0;resizeLast=0;collapsible=1;marginBottom=0;whiteSpace=wrap;html=1;" vertex="1" parent="WIyWlLk6GJQsqaUBKTNV-1">
          <mxGeometry x="440" y="80" width="280" height="160" as="geometry" />
        </mxCell>
        <mxCell id="ypGPbcFVO5MuSrkknOs2-5" value="- Marca: String&lt;div&gt;&lt;span style=&quot;background-color: initial;&quot;&gt;- Cilindrada: Int&lt;/span&gt;&lt;br&gt;&lt;/div&gt;&lt;div&gt;- Punto: Int&lt;br&gt;&lt;/div&gt;&lt;div&gt;- Combustible: &amp;lt;COMBUSTIBLE&amp;gt;&lt;/div&gt;" style="text;strokeColor=none;fillColor=none;align=left;verticalAlign=top;spacingLeft=4;spacingRight=4;overflow=hidden;rotatable=0;points=[[0,0.5],[1,0.5]];portConstraint=eastwest;whiteSpace=wrap;html=1;" vertex="1" parent="ypGPbcFVO5MuSrkknOs2-4">
          <mxGeometry y="30" width="280" height="70" as="geometry" />
        </mxCell>
        <mxCell id="ypGPbcFVO5MuSrkknOs2-6" value="" style="line;strokeWidth=1;fillColor=none;align=left;verticalAlign=middle;spacingTop=-1;spacingLeft=3;spacingRight=3;rotatable=0;labelPosition=right;points=[];portConstraint=eastwest;strokeColor=inherit;" vertex="1" parent="ypGPbcFVO5MuSrkknOs2-4">
          <mxGeometry y="100" width="280" height="8" as="geometry" />
        </mxCell>
        <mxCell id="ypGPbcFVO5MuSrkknOs2-7" value="+ Obtener_edad(): int&lt;div&gt;+ Cliente(nombre String, apellido String)&lt;/div&gt;" style="text;strokeColor=none;fillColor=none;align=left;verticalAlign=top;spacingLeft=4;spacingRight=4;overflow=hidden;rotatable=0;points=[[0,0.5],[1,0.5]];portConstraint=eastwest;whiteSpace=wrap;html=1;" vertex="1" parent="ypGPbcFVO5MuSrkknOs2-4">
          <mxGeometry y="108" width="280" height="52" as="geometry" />
        </mxCell>
        <mxCell id="ypGPbcFVO5MuSrkknOs2-8" value="Combustible" style="swimlane;fontStyle=1;align=center;verticalAlign=top;childLayout=stackLayout;horizontal=1;startSize=26;horizontalStack=0;resizeParent=1;resizeParentMax=0;resizeLast=0;collapsible=1;marginBottom=0;whiteSpace=wrap;html=1;" vertex="1" parent="WIyWlLk6GJQsqaUBKTNV-1">
          <mxGeometry x="450" y="310" width="270" height="114" as="geometry">
            <mxRectangle x="450" y="310" width="110" height="30" as="alternateBounds" />
          </mxGeometry>
        </mxCell>
        <mxCell id="ypGPbcFVO5MuSrkknOs2-9" value="- Nombre String&lt;div&gt;- Octanage int&lt;/div&gt;" style="text;strokeColor=none;fillColor=none;align=left;verticalAlign=top;spacingLeft=4;spacingRight=4;overflow=hidden;rotatable=0;points=[[0,0.5],[1,0.5]];portConstraint=eastwest;whiteSpace=wrap;html=1;" vertex="1" parent="ypGPbcFVO5MuSrkknOs2-8">
          <mxGeometry y="26" width="270" height="54" as="geometry" />
        </mxCell>
        <mxCell id="ypGPbcFVO5MuSrkknOs2-10" value="" style="line;strokeWidth=1;fillColor=none;align=left;verticalAlign=middle;spacingTop=-1;spacingLeft=3;spacingRight=3;rotatable=0;labelPosition=right;points=[];portConstraint=eastwest;strokeColor=inherit;" vertex="1" parent="ypGPbcFVO5MuSrkknOs2-8">
          <mxGeometry y="80" width="270" height="8" as="geometry" />
        </mxCell>
        <mxCell id="ypGPbcFVO5MuSrkknOs2-11" value="+ method(type): type" style="text;strokeColor=none;fillColor=none;align=left;verticalAlign=top;spacingLeft=4;spacingRight=4;overflow=hidden;rotatable=0;points=[[0,0.5],[1,0.5]];portConstraint=eastwest;whiteSpace=wrap;html=1;" vertex="1" parent="ypGPbcFVO5MuSrkknOs2-8">
          <mxGeometry y="88" width="270" height="26" as="geometry" />
        </mxCell>
        <mxCell id="ypGPbcFVO5MuSrkknOs2-12" value="" style="endArrow=classic;html=1;rounded=0;exitX=1.008;exitY=0.729;exitDx=0;exitDy=0;exitPerimeter=0;entryX=-0.016;entryY=0.634;entryDx=0;entryDy=0;entryPerimeter=0;" edge="1" parent="WIyWlLk6GJQsqaUBKTNV-1" source="k-K2xL4uydOFMYodM3rV-3" target="ypGPbcFVO5MuSrkknOs2-5">
          <mxGeometry width="50" height="50" relative="1" as="geometry">
            <mxPoint x="390" y="320" as="sourcePoint" />
            <mxPoint x="440" y="270" as="targetPoint" />
            <Array as="points">
              <mxPoint x="390" y="200" />
            </Array>
          </mxGeometry>
        </mxCell>
        <mxCell id="ypGPbcFVO5MuSrkknOs2-16" value="1" style="edgeLabel;html=1;align=center;verticalAlign=middle;resizable=0;points=[];" vertex="1" connectable="0" parent="ypGPbcFVO5MuSrkknOs2-12">
          <mxGeometry x="-0.4237" y="1" relative="1" as="geometry">
            <mxPoint as="offset" />
          </mxGeometry>
        </mxCell>
        <mxCell id="ypGPbcFVO5MuSrkknOs2-17" value="1" style="edgeLabel;html=1;align=center;verticalAlign=middle;resizable=0;points=[];" vertex="1" connectable="0" parent="ypGPbcFVO5MuSrkknOs2-12">
          <mxGeometry x="0.3733" y="-1" relative="1" as="geometry">
            <mxPoint as="offset" />
          </mxGeometry>
        </mxCell>
        <mxCell id="ypGPbcFVO5MuSrkknOs2-15" value="" style="endArrow=classic;html=1;rounded=0;exitX=0.25;exitY=0;exitDx=0;exitDy=0;" edge="1" parent="WIyWlLk6GJQsqaUBKTNV-1" source="ypGPbcFVO5MuSrkknOs2-8" target="ypGPbcFVO5MuSrkknOs2-7">
          <mxGeometry width="50" height="50" relative="1" as="geometry">
            <mxPoint x="530" y="300" as="sourcePoint" />
            <mxPoint x="580" y="250" as="targetPoint" />
          </mxGeometry>
        </mxCell>
        <mxCell id="ypGPbcFVO5MuSrkknOs2-18" value="1" style="edgeLabel;html=1;align=center;verticalAlign=middle;resizable=0;points=[];" vertex="1" connectable="0" parent="ypGPbcFVO5MuSrkknOs2-15">
          <mxGeometry x="-0.6006" y="-1" relative="1" as="geometry">
            <mxPoint y="1" as="offset" />
          </mxGeometry>
        </mxCell>
        <mxCell id="ypGPbcFVO5MuSrkknOs2-19" value="1-N" style="edgeLabel;html=1;align=center;verticalAlign=middle;resizable=0;points=[];" vertex="1" connectable="0" parent="ypGPbcFVO5MuSrkknOs2-15">
          <mxGeometry x="0.3761" relative="1" as="geometry">
            <mxPoint as="offset" />
          </mxGeometry>
        </mxCell>
        <mxCell id="ypGPbcFVO5MuSrkknOs2-20" value="Persona" style="swimlane;fontStyle=1;align=center;verticalAlign=top;childLayout=stackLayout;horizontal=1;startSize=26;horizontalStack=0;resizeParent=1;resizeParentMax=0;resizeLast=0;collapsible=1;marginBottom=0;whiteSpace=wrap;html=1;" vertex="1" parent="WIyWlLk6GJQsqaUBKTNV-1">
          <mxGeometry x="445" y="520" width="270" height="114" as="geometry">
            <mxRectangle x="450" y="310" width="110" height="30" as="alternateBounds" />
          </mxGeometry>
        </mxCell>
        <mxCell id="ypGPbcFVO5MuSrkknOs2-21" value="- Nombre String&lt;div&gt;- Localidad &amp;lt;LOCALIDAD&amp;gt;&lt;/div&gt;" style="text;strokeColor=none;fillColor=none;align=left;verticalAlign=top;spacingLeft=4;spacingRight=4;overflow=hidden;rotatable=0;points=[[0,0.5],[1,0.5]];portConstraint=eastwest;whiteSpace=wrap;html=1;" vertex="1" parent="ypGPbcFVO5MuSrkknOs2-20">
          <mxGeometry y="26" width="270" height="54" as="geometry" />
        </mxCell>
        <mxCell id="ypGPbcFVO5MuSrkknOs2-22" value="" style="line;strokeWidth=1;fillColor=none;align=left;verticalAlign=middle;spacingTop=-1;spacingLeft=3;spacingRight=3;rotatable=0;labelPosition=right;points=[];portConstraint=eastwest;strokeColor=inherit;" vertex="1" parent="ypGPbcFVO5MuSrkknOs2-20">
          <mxGeometry y="80" width="270" height="8" as="geometry" />
        </mxCell>
        <mxCell id="ypGPbcFVO5MuSrkknOs2-23" value="+ method(type): type" style="text;strokeColor=none;fillColor=none;align=left;verticalAlign=top;spacingLeft=4;spacingRight=4;overflow=hidden;rotatable=0;points=[[0,0.5],[1,0.5]];portConstraint=eastwest;whiteSpace=wrap;html=1;" vertex="1" parent="ypGPbcFVO5MuSrkknOs2-20">
          <mxGeometry y="88" width="270" height="26" as="geometry" />
        </mxCell>
        <mxCell id="ypGPbcFVO5MuSrkknOs2-24" value="Localidad" style="swimlane;fontStyle=1;align=center;verticalAlign=top;childLayout=stackLayout;horizontal=1;startSize=26;horizontalStack=0;resizeParent=1;resizeParentMax=0;resizeLast=0;collapsible=1;marginBottom=0;whiteSpace=wrap;html=1;" vertex="1" parent="WIyWlLk6GJQsqaUBKTNV-1">
          <mxGeometry x="50" y="520" width="270" height="138" as="geometry">
            <mxRectangle x="450" y="310" width="110" height="30" as="alternateBounds" />
          </mxGeometry>
        </mxCell>
        <mxCell id="ypGPbcFVO5MuSrkknOs2-25" value="- Nombre String&lt;div&gt;- CP String&lt;/div&gt;&lt;div&gt;-Habitantes Int&lt;br&gt;&lt;div&gt;- Provincia &amp;lt;PROVINCIA&amp;gt;&lt;/div&gt;&lt;/div&gt;&lt;div&gt;&lt;br&gt;&lt;/div&gt;" style="text;strokeColor=none;fillColor=none;align=left;verticalAlign=top;spacingLeft=4;spacingRight=4;overflow=hidden;rotatable=0;points=[[0,0.5],[1,0.5]];portConstraint=eastwest;whiteSpace=wrap;html=1;" vertex="1" parent="ypGPbcFVO5MuSrkknOs2-24">
          <mxGeometry y="26" width="270" height="74" as="geometry" />
        </mxCell>
        <mxCell id="ypGPbcFVO5MuSrkknOs2-26" value="" style="line;strokeWidth=1;fillColor=none;align=left;verticalAlign=middle;spacingTop=-1;spacingLeft=3;spacingRight=3;rotatable=0;labelPosition=right;points=[];portConstraint=eastwest;strokeColor=inherit;" vertex="1" parent="ypGPbcFVO5MuSrkknOs2-24">
          <mxGeometry y="100" width="270" height="8" as="geometry" />
        </mxCell>
        <mxCell id="ypGPbcFVO5MuSrkknOs2-27" value="+ method(type): type" style="text;strokeColor=none;fillColor=none;align=left;verticalAlign=top;spacingLeft=4;spacingRight=4;overflow=hidden;rotatable=0;points=[[0,0.5],[1,0.5]];portConstraint=eastwest;whiteSpace=wrap;html=1;" vertex="1" parent="ypGPbcFVO5MuSrkknOs2-24">
          <mxGeometry y="108" width="270" height="30" as="geometry" />
        </mxCell>
        <mxCell id="ypGPbcFVO5MuSrkknOs2-28" value="Provincia" style="swimlane;fontStyle=1;align=center;verticalAlign=top;childLayout=stackLayout;horizontal=1;startSize=26;horizontalStack=0;resizeParent=1;resizeParentMax=0;resizeLast=0;collapsible=1;marginBottom=0;whiteSpace=wrap;html=1;" vertex="1" parent="WIyWlLk6GJQsqaUBKTNV-1">
          <mxGeometry x="144" y="780" width="270" height="114" as="geometry">
            <mxRectangle x="450" y="310" width="110" height="30" as="alternateBounds" />
          </mxGeometry>
        </mxCell>
        <mxCell id="ypGPbcFVO5MuSrkknOs2-29" value="- Nombre String&lt;div&gt;- Pais &amp;lt;PAIS&amp;gt;&lt;/div&gt;" style="text;strokeColor=none;fillColor=none;align=left;verticalAlign=top;spacingLeft=4;spacingRight=4;overflow=hidden;rotatable=0;points=[[0,0.5],[1,0.5]];portConstraint=eastwest;whiteSpace=wrap;html=1;" vertex="1" parent="ypGPbcFVO5MuSrkknOs2-28">
          <mxGeometry y="26" width="270" height="54" as="geometry" />
        </mxCell>
        <mxCell id="ypGPbcFVO5MuSrkknOs2-30" value="" style="line;strokeWidth=1;fillColor=none;align=left;verticalAlign=middle;spacingTop=-1;spacingLeft=3;spacingRight=3;rotatable=0;labelPosition=right;points=[];portConstraint=eastwest;strokeColor=inherit;" vertex="1" parent="ypGPbcFVO5MuSrkknOs2-28">
          <mxGeometry y="80" width="270" height="8" as="geometry" />
        </mxCell>
        <mxCell id="ypGPbcFVO5MuSrkknOs2-31" value="+ method(type): type" style="text;strokeColor=none;fillColor=none;align=left;verticalAlign=top;spacingLeft=4;spacingRight=4;overflow=hidden;rotatable=0;points=[[0,0.5],[1,0.5]];portConstraint=eastwest;whiteSpace=wrap;html=1;" vertex="1" parent="ypGPbcFVO5MuSrkknOs2-28">
          <mxGeometry y="88" width="270" height="26" as="geometry" />
        </mxCell>
        <mxCell id="ypGPbcFVO5MuSrkknOs2-32" value="Pais" style="swimlane;fontStyle=1;align=center;verticalAlign=top;childLayout=stackLayout;horizontal=1;startSize=26;horizontalStack=0;resizeParent=1;resizeParentMax=0;resizeLast=0;collapsible=1;marginBottom=0;whiteSpace=wrap;html=1;" vertex="1" parent="WIyWlLk6GJQsqaUBKTNV-1">
          <mxGeometry x="520" y="680" width="270" height="114" as="geometry">
            <mxRectangle x="450" y="310" width="110" height="30" as="alternateBounds" />
          </mxGeometry>
        </mxCell>
        <mxCell id="ypGPbcFVO5MuSrkknOs2-33" value="- Nombre String" style="text;strokeColor=none;fillColor=none;align=left;verticalAlign=top;spacingLeft=4;spacingRight=4;overflow=hidden;rotatable=0;points=[[0,0.5],[1,0.5]];portConstraint=eastwest;whiteSpace=wrap;html=1;" vertex="1" parent="ypGPbcFVO5MuSrkknOs2-32">
          <mxGeometry y="26" width="270" height="54" as="geometry" />
        </mxCell>
        <mxCell id="ypGPbcFVO5MuSrkknOs2-34" value="" style="line;strokeWidth=1;fillColor=none;align=left;verticalAlign=middle;spacingTop=-1;spacingLeft=3;spacingRight=3;rotatable=0;labelPosition=right;points=[];portConstraint=eastwest;strokeColor=inherit;" vertex="1" parent="ypGPbcFVO5MuSrkknOs2-32">
          <mxGeometry y="80" width="270" height="8" as="geometry" />
        </mxCell>
        <mxCell id="ypGPbcFVO5MuSrkknOs2-35" value="+ method(type): type" style="text;strokeColor=none;fillColor=none;align=left;verticalAlign=top;spacingLeft=4;spacingRight=4;overflow=hidden;rotatable=0;points=[[0,0.5],[1,0.5]];portConstraint=eastwest;whiteSpace=wrap;html=1;" vertex="1" parent="ypGPbcFVO5MuSrkknOs2-32">
          <mxGeometry y="88" width="270" height="26" as="geometry" />
        </mxCell>
        <mxCell id="ypGPbcFVO5MuSrkknOs2-36" style="edgeStyle=orthogonalEdgeStyle;rounded=0;orthogonalLoop=1;jettySize=auto;html=1;exitX=0;exitY=0.5;exitDx=0;exitDy=0;entryX=1.01;entryY=0.362;entryDx=0;entryDy=0;entryPerimeter=0;" edge="1" parent="WIyWlLk6GJQsqaUBKTNV-1" source="ypGPbcFVO5MuSrkknOs2-21" target="ypGPbcFVO5MuSrkknOs2-25">
          <mxGeometry relative="1" as="geometry" />
        </mxCell>
        <mxCell id="ypGPbcFVO5MuSrkknOs2-37" value="1 *" style="edgeLabel;html=1;align=center;verticalAlign=middle;resizable=0;points=[];" vertex="1" connectable="0" parent="ypGPbcFVO5MuSrkknOs2-36">
          <mxGeometry x="-0.458" relative="1" as="geometry">
            <mxPoint x="-1" as="offset" />
          </mxGeometry>
        </mxCell>
        <mxCell id="ypGPbcFVO5MuSrkknOs2-38" value="1&lt;div&gt;&lt;br&gt;&lt;/div&gt;" style="edgeLabel;html=1;align=center;verticalAlign=middle;resizable=0;points=[];" vertex="1" connectable="0" parent="ypGPbcFVO5MuSrkknOs2-36">
          <mxGeometry x="0.4653" relative="1" as="geometry">
            <mxPoint x="1" as="offset" />
          </mxGeometry>
        </mxCell>
        <mxCell id="ypGPbcFVO5MuSrkknOs2-40" value="1 - n&lt;div&gt;&lt;br&gt;&lt;/div&gt;" style="edgeLabel;html=1;align=center;verticalAlign=middle;resizable=0;points=[];" vertex="1" connectable="0" parent="ypGPbcFVO5MuSrkknOs2-36">
          <mxGeometry x="-0.4416" y="1" relative="1" as="geometry">
            <mxPoint x="-1" as="offset" />
          </mxGeometry>
        </mxCell>
        <mxCell id="ypGPbcFVO5MuSrkknOs2-41" style="edgeStyle=orthogonalEdgeStyle;rounded=0;orthogonalLoop=1;jettySize=auto;html=1;entryX=0.724;entryY=-0.007;entryDx=0;entryDy=0;entryPerimeter=0;" edge="1" parent="WIyWlLk6GJQsqaUBKTNV-1" source="ypGPbcFVO5MuSrkknOs2-27" target="ypGPbcFVO5MuSrkknOs2-28">
          <mxGeometry relative="1" as="geometry" />
        </mxCell>
        <mxCell id="ypGPbcFVO5MuSrkknOs2-42" value="1" style="edgeLabel;html=1;align=center;verticalAlign=middle;resizable=0;points=[];" vertex="1" connectable="0" parent="ypGPbcFVO5MuSrkknOs2-41">
          <mxGeometry x="-0.2623" y="-1" relative="1" as="geometry">
            <mxPoint as="offset" />
          </mxGeometry>
        </mxCell>
        <mxCell id="ypGPbcFVO5MuSrkknOs2-43" value="1 - n&lt;div&gt;&lt;br&gt;&lt;/div&gt;" style="edgeLabel;html=1;align=center;verticalAlign=middle;resizable=0;points=[];" vertex="1" connectable="0" parent="ypGPbcFVO5MuSrkknOs2-41">
          <mxGeometry x="0.5992" relative="1" as="geometry">
            <mxPoint as="offset" />
          </mxGeometry>
        </mxCell>
        <mxCell id="ypGPbcFVO5MuSrkknOs2-44" style="edgeStyle=orthogonalEdgeStyle;rounded=0;orthogonalLoop=1;jettySize=auto;html=1;entryX=0.553;entryY=0.985;entryDx=0;entryDy=0;entryPerimeter=0;" edge="1" parent="WIyWlLk6GJQsqaUBKTNV-1" source="ypGPbcFVO5MuSrkknOs2-29" target="ypGPbcFVO5MuSrkknOs2-35">
          <mxGeometry relative="1" as="geometry" />
        </mxCell>
        <mxCell id="ypGPbcFVO5MuSrkknOs2-45" value="1" style="edgeLabel;html=1;align=center;verticalAlign=middle;resizable=0;points=[];" vertex="1" connectable="0" parent="ypGPbcFVO5MuSrkknOs2-44">
          <mxGeometry x="-0.6349" relative="1" as="geometry">
            <mxPoint as="offset" />
          </mxGeometry>
        </mxCell>
        <mxCell id="ypGPbcFVO5MuSrkknOs2-46" value="1 - n&lt;div&gt;&lt;br&gt;&lt;/div&gt;" style="edgeLabel;html=1;align=center;verticalAlign=middle;resizable=0;points=[];" vertex="1" connectable="0" parent="ypGPbcFVO5MuSrkknOs2-44">
          <mxGeometry x="0.5257" y="-1" relative="1" as="geometry">
            <mxPoint as="offset" />
          </mxGeometry>
        </mxCell>
      </root>
    </mxGraphModel>
  </diagram>
</mxfile>
